<?xml version="1.0" standalone="no"?><svg xmlns:xlink="http://www.w3.org/1999/xlink" xmlns="http://www.w3.org/2000/svg" viewBox="0 0 1200 654.5508183421734" preserveAspectRatio="xMaxYMax slice"><g transform="scale(1.8438051220906293)"><rect x="0" y="0" width="650.8333333333333" height="355" fill="#F68F43"/><path d="M 59.17 0 A 59.17 59.17 0 0 1  118.34 59.17 L 59.17 0 A 59.17 59.17 0 0 0 118.34 59.17" fill="#f79d5a"/><rect x="118.33333333333333" y="0" width="59.166666666666664" height="59.166666666666664" fill="#F68F43"/><path d="M 118.33 0 A 29.58 29.58 0 0 0 147.91 29.58 L 147.91 0" fill="#f79a56"/><path d="M 177.5 0 A 59.17 59.17 0 0 0 236.67000000000002 59.17 L 236.67000000000002 0" fill="#8e9a74"/><rect x="355" y="0" width="59.166666666666664" height="59.166666666666664" fill="#F68F43"/><path d="M 355 29.58 A 29.58 29.58 0 0 1  384.58 0 L 355 29.58 A 29.58 29.58 0 0 0 384.58 0" fill="#6e9d83"/><path d="M 355 59.16 A 29.58 29.58 0 0 1  384.58 29.58 L 384.58 59.16" fill="#d49353"/><path d="M 384.58 29.58 A 29.58 29.58 0 0 1 414.15999999999997 59.16 L 384.58 59.16" fill="#f7954d"/><rect x="473.3333333333333" y="0" width="59.166666666666664" height="59.166666666666664" fill="#F68F43"/><path d="M 502.92 29.58 A 29.58 29.58 0 0 0 532.5 0 L 502.92 0" fill="#f8a76a"/><rect x="591.6666666666666" y="0" width="59.166666666666664" height="59.166666666666664" fill="#F68F43"/><path d="M 591.67 29.58 A 29.58 29.58 0 0 0 621.25 0 L 591.67 0" fill="#889b77"/><path d="M 621.25 0 A 29.58 29.58 0 0 1 650.83 29.58 L 621.25 29.58" fill="#f79f5d"/><path d="M 591.67 59.16 A 29.58 29.58 0 0 1  621.25 29.58 L 591.67 59.16 A 29.58 29.58 0 0 0 621.25 29.58" fill="#cb9457"/><path d="M 621.25 29.58 A 29.58 29.58 0 0 0 650.83 59.16 L 650.83 29.58" fill="#f69248"/><path d="M 177.5 59.17 A 59.17 59.17 0 0 1  236.67000000000002 118.34 L 177.5 59.17 A 59.17 59.17 0 0 0 236.67000000000002 118.34" fill="#a0986c"/><rect x="295.8333333333333" y="59.166666666666664" width="59.166666666666664" height="59.166666666666664" fill="#F68F43"/><path d="M 325.42 59.17 A 29.58 29.58 0 0 1  355 88.75 L 325.42 59.17 A 29.58 29.58 0 0 0 355 88.75" fill="#f79d5b"/><rect x="355" y="59.166666666666664" width="59.166666666666664" height="59.166666666666664" fill="#F68F43"/><path d="M 355 59.17 A 29.58 29.58 0 0 1  384.58 88.75 L 355 59.17 A 29.58 29.58 0 0 0 384.58 88.75" fill="#f79c58"/><rect x="473.3333333333333" y="59.166666666666664" width="59.166666666666664" height="59.166666666666664" fill="#F68F43"/><path d="M 473.33 59.17 A 29.58 29.58 0 0 0 502.90999999999997 88.75 L 502.90999999999997 59.17" fill="#f79e5c"/><path d="M 473.33 118.33 A 29.58 29.58 0 0 1  502.90999999999997 88.75 L 473.33 118.33 A 29.58 29.58 0 0 0 502.90999999999997 88.75" fill="#56a08e"/><path d="M 532.5 118.34 A 59.17 59.17 0 0 1  591.67 59.17 L 532.5 118.34 A 59.17 59.17 0 0 0 591.67 59.17" fill="#759d80"/><path d="M 591.67 118.34 A 59.17 59.17 0 0 1  650.8399999999999 59.17 L 591.67 118.34 A 59.17 59.17 0 0 0 650.8399999999999 59.17" fill="#f8a465"/><rect x="118.33333333333333" y="118.33333333333333" width="59.166666666666664" height="59.166666666666664" fill="#F68F43"/><path d="M 147.92 118.33 A 29.58 29.58 0 0 1 177.5 147.91 L 147.92 147.91" fill="#f6944a"/><path d="M 118.33 147.92 A 29.58 29.58 0 0 1 147.91 177.5 L 118.33 177.5" fill="#ec9048"/><rect x="177.5" y="118.33333333333333" width="59.166666666666664" height="59.166666666666664" fill="#F68F43"/><path d="M 207.08 118.33 A 29.58 29.58 0 0 1  236.66000000000003 147.91 L 207.08 118.33 A 29.58 29.58 0 0 0 236.66000000000003 147.91" fill="#f79a55"/><rect x="295.8333333333333" y="118.33333333333333" width="59.166666666666664" height="59.166666666666664" fill="#F68F43"/><path d="M 295.83 118.33 A 29.58 29.58 0 0 1  325.40999999999997 147.91 L 295.83 118.33 A 29.58 29.58 0 0 0 325.40999999999997 147.91" fill="#f79b57"/><path d="M 295.83 147.92 A 29.58 29.58 0 0 1  325.40999999999997 177.5 L 295.83 147.92 A 29.58 29.58 0 0 0 325.40999999999997 177.5" fill="#f79750"/><path d="M 325.42 147.92 A 29.58 29.58 0 0 1 355 177.5 L 325.42 177.5" fill="#f69247"/><rect x="473.3333333333333" y="118.33333333333333" width="59.166666666666664" height="59.166666666666664" fill="#F68F43"/><path d="M 502.92 147.91 A 29.58 29.58 0 0 1  532.5 118.33 L 532.5 147.91" fill="#f69248"/><path d="M 502.92 177.5 A 29.58 29.58 0 0 1  532.5 147.92 L 532.5 177.5" fill="#9e986c"/><path d="M 0 236.67000000000002 A 59.17 59.17 0 0 0 59.17 177.5 L 0 177.5" fill="#56a08e"/><path d="M 236.67 236.67000000000002 A 59.17 59.17 0 0 1  295.84 177.5 L 236.67 236.67000000000002 A 59.17 59.17 0 0 0 295.84 177.5" fill="#f69147"/><path d="M 295.83 236.67000000000002 A 59.17 59.17 0 0 1  355 177.5 L 355 236.67000000000002" fill="#f79b57"/><rect x="355" y="177.5" width="59.166666666666664" height="59.166666666666664" fill="#F68F43"/><path d="M 355 207.07999999999998 A 29.58 29.58 0 0 1  384.58 177.5 L 355 207.07999999999998 A 29.58 29.58 0 0 0 384.58 177.5" fill="#f7a161"/><path d="M 355 236.66000000000003 A 29.58 29.58 0 0 1  384.58 207.08 L 355 236.66000000000003 A 29.58 29.58 0 0 0 384.58 207.08" fill="#f7a160"/><path d="M 414.17 177.5 A 59.17 59.17 0 0 1  473.34000000000003 236.67000000000002 L 414.17 177.5 A 59.17 59.17 0 0 0 473.34000000000003 236.67000000000002" fill="#f69147"/><rect x="473.3333333333333" y="177.5" width="59.166666666666664" height="59.166666666666664" fill="#F68F43"/><path d="M 502.92 177.5 A 29.58 29.58 0 0 1 532.5 207.07999999999998 L 502.92 207.07999999999998" fill="#889b77"/><path d="M 473.33 236.66000000000003 A 29.58 29.58 0 0 1  502.90999999999997 207.08 L 473.33 236.66000000000003 A 29.58 29.58 0 0 0 502.90999999999997 207.08" fill="#959971"/><path d="M 502.92 207.08 A 29.58 29.58 0 0 1  532.5 236.66000000000003 L 502.92 207.08 A 29.58 29.58 0 0 0 532.5 236.66000000000003" fill="#f69248"/><path d="M 532.5 236.67000000000002 A 59.17 59.17 0 0 1  591.67 177.5 L 532.5 236.67000000000002 A 59.17 59.17 0 0 0 591.67 177.5" fill="#f8a465"/><path d="M 591.67 236.67000000000002 A 59.17 59.17 0 0 1  650.8399999999999 177.5 L 591.67 236.67000000000002 A 59.17 59.17 0 0 0 650.8399999999999 177.5" fill="#f79f5d"/><rect x="59.166666666666664" y="236.66666666666666" width="59.166666666666664" height="59.166666666666664" fill="#F68F43"/><path d="M 59.17 266.25 A 29.58 29.58 0 0 1  88.75 236.67 L 59.17 266.25 A 29.58 29.58 0 0 0 88.75 236.67" fill="#679e86"/><path d="M 59.17 266.25 A 29.58 29.58 0 0 1  88.75 295.83 L 59.17 266.25 A 29.58 29.58 0 0 0 88.75 295.83" fill="#b29663"/><rect x="177.5" y="236.66666666666666" width="59.166666666666664" height="59.166666666666664" fill="#F68F43"/><path d="M 207.08 266.25 A 29.58 29.58 0 0 0 236.66000000000003 236.67 L 207.08 236.67" fill="#f7964e"/><path d="M 177.5 266.25 A 29.58 29.58 0 0 1  207.07999999999998 295.83 L 177.5 266.25 A 29.58 29.58 0 0 0 207.07999999999998 295.83" fill="#c0955d"/><path d="M 355 295.84 A 59.17 59.17 0 0 1  414.17 236.67 L 355 295.84 A 59.17 59.17 0 0 0 414.17 236.67" fill="#f69045"/><path d="M 473.33 295.84 A 59.17 59.17 0 0 1  532.5 236.67 L 473.33 295.84 A 59.17 59.17 0 0 0 532.5 236.67" fill="#f6944c"/><path d="M 0 355 A 59.17 59.17 0 0 1  59.17 295.83 L 59.17 355" fill="#f8a364"/><path d="M 118.33 355 A 59.17 59.17 0 0 1  177.5 295.83 L 177.5 355" fill="#5b9f8c"/><rect x="177.5" y="295.8333333333333" width="59.166666666666664" height="59.166666666666664" fill="#F68F43"/><path d="M 207.08 325.40999999999997 A 29.58 29.58 0 0 1  236.66000000000003 295.83 L 236.66000000000003 325.40999999999997" fill="#8d9a74"/><path d="M 177.5 325.42 A 29.58 29.58 0 0 1  207.07999999999998 355 L 177.5 325.42 A 29.58 29.58 0 0 0 207.07999999999998 355" fill="#f79954"/><path d="M 207.08 355 A 29.58 29.58 0 0 1  236.66000000000003 325.42 L 207.08 355 A 29.58 29.58 0 0 0 236.66000000000003 325.42" fill="#d49353"/><rect x="295.8333333333333" y="295.8333333333333" width="59.166666666666664" height="59.166666666666664" fill="#F68F43"/><path d="M 295.83 295.83 A 29.58 29.58 0 0 1  325.40999999999997 325.40999999999997 L 295.83 295.83 A 29.58 29.58 0 0 0 325.40999999999997 325.40999999999997" fill="#f79954"/><path d="M 325.42 295.83 A 29.58 29.58 0 0 1  355 325.40999999999997 L 325.42 295.83 A 29.58 29.58 0 0 0 355 325.40999999999997" fill="#f69045"/><rect x="355" y="295.8333333333333" width="59.166666666666664" height="59.166666666666664" fill="#F68F43"/><path d="M 355 325.40999999999997 A 29.58 29.58 0 0 1  384.58 295.83 L 355 325.40999999999997 A 29.58 29.58 0 0 0 384.58 295.83" fill="#f8a465"/><path d="M 384.58 295.83 A 29.58 29.58 0 0 1  414.15999999999997 325.40999999999997 L 384.58 295.83 A 29.58 29.58 0 0 0 414.15999999999997 325.40999999999997" fill="#f79750"/><path d="M 355 325.42 A 29.58 29.58 0 0 1 384.58 355 L 355 355" fill="#ac9766"/><path d="M 384.58 325.42 A 29.58 29.58 0 0 1  414.15999999999997 355 L 384.58 325.42 A 29.58 29.58 0 0 0 414.15999999999997 355" fill="#e8914a"/><rect x="414.16666666666663" y="295.8333333333333" width="59.166666666666664" height="59.166666666666664" fill="#F68F43"/><path d="M 414.17 295.83 A 29.58 29.58 0 0 1  443.75 325.40999999999997 L 414.17 295.83 A 29.58 29.58 0 0 0 443.75 325.40999999999997" fill="#e99049"/><path d="M 443.75 295.83 A 29.58 29.58 0 0 1  473.33 325.40999999999997 L 443.75 295.83 A 29.58 29.58 0 0 0 473.33 325.40999999999997" fill="#ce9356"/><path d="M 414.17 355 A 29.58 29.58 0 0 1  443.75 325.42 L 414.17 355 A 29.58 29.58 0 0 0 443.75 325.42" fill="#f79751"/><path d="M 443.75 355 A 29.58 29.58 0 0 1  473.33 325.42 L 443.75 355 A 29.58 29.58 0 0 0 473.33 325.42" fill="#f79751"/><rect x="532.5" y="295.8333333333333" width="59.166666666666664" height="59.166666666666664" fill="#F68F43"/><path d="M 532.5 295.83 A 29.58 29.58 0 0 1  562.08 325.40999999999997 L 532.5 295.83 A 29.58 29.58 0 0 0 562.08 325.40999999999997" fill="#f79c59"/><path d="M 562.08 295.83 A 29.58 29.58 0 0 1  591.6600000000001 325.40999999999997 L 562.08 295.83 A 29.58 29.58 0 0 0 591.6600000000001 325.40999999999997" fill="#f79852"/><rect x="591.6666666666666" y="295.8333333333333" width="59.166666666666664" height="59.166666666666664" fill="#F68F43"/><path d="M 591.67 295.83 A 29.58 29.58 0 0 0 621.25 325.40999999999997 L 621.25 295.83" fill="#809b7a"/><path d="M 621.25 295.83 A 29.58 29.58 0 0 1 650.83 325.40999999999997 L 621.25 325.40999999999997" fill="#f8a466"/><path d="M 621.25 355 A 29.58 29.58 0 0 1  650.83 325.42 L 621.25 355 A 29.58 29.58 0 0 0 650.83 325.42" fill="#f7a05f"/></g></svg>