<?xml version="1.0" standalone="no"?><svg xmlns:xlink="http://www.w3.org/1999/xlink" xmlns="http://www.w3.org/2000/svg" viewBox="0 0 1000 545.4590152851445" preserveAspectRatio="xMaxYMax slice"><g transform="scale(1.5365042684088577)"><rect x="0" y="0" width="650.8333333333333" height="355" fill="#ffffff"/><rect x="0" y="0" width="59.17" height="59.17" fill="#fdeadb"/><rect x="59.166666666666664" y="0" width="59.166666666666664" height="59.166666666666664" fill="#ffffff"/><path d="M 59.17 0 A 29.58 29.58 0 0 1  88.75 29.58 L 59.17 0 A 29.58 29.58 0 0 0 88.75 29.58" fill="#dcecea"/><polygon points="88.75,0 118.33,0 88.75,29.58" fill="#389687"/><path d="M 59.17 59.16 A 29.58 29.58 0 0 1  88.75 29.58 L 59.17 59.16 A 29.58 29.58 0 0 0 88.75 29.58" fill="#89c1b8"/><path d="M 88.75 29.58 A 29.58 29.58 0 0 1  118.33 59.16 L 88.75 29.58 A 29.58 29.58 0 0 0 118.33 59.16" fill="#c7e2dd"/><rect x="118.33333333333333" y="0" width="59.166666666666664" height="59.166666666666664" fill="#ffffff"/><path d="M 118.33 29.58 A 29.58 29.58 0 0 1  147.91 0 L 147.91 29.58" fill="#f1f8f7"/><polygon points="147.92,0 177.5,29.58 147.92,29.58" fill="#f68d40"/><path d="M 118.33 59.16 A 29.58 29.58 0 0 1  147.91 29.58 L 147.91 59.16" fill="#ffffff"/><path d="M 147.92 59.16 A 29.58 29.58 0 0 1  177.5 29.58 L 147.92 59.16 A 29.58 29.58 0 0 0 177.5 29.58" fill="#fffdfc"/><rect x="177.5" y="0" width="59.166666666666664" height="59.166666666666664" fill="#ffffff"/><rect x="177.5" y="0" width="29.58" height="29.58" fill="#e5f1ef"/><rect x="207.08" y="0" width="29.58" height="29.58" fill="#c6e1dd"/><polygon points="177.5,29.58 207.07999999999998,29.58 207.07999999999998,59.16" fill="#278d7c"/><path d="M 207.08 59.16 A 29.58 29.58 0 0 1  236.66000000000003 29.58 L 207.08 59.16 A 29.58 29.58 0 0 0 236.66000000000003 29.58" fill="#fffcfa"/><polygon points="236.67,0 295.84,0 295.84,59.17" fill="#f6964e"/><polygon points="295.83,0 355,0 295.83,59.17" fill="#0e806d"/><rect x="355" y="0" width="59.166666666666664" height="59.166666666666664" fill="#ffffff"/><path d="M 355 0 A 29.58 29.58 0 0 0 384.58 29.58 L 384.58 0" fill="#fef4ed"/><rect x="384.58" y="0" width="29.58" height="29.58" fill="#0d806d"/><path d="M 355 59.16 A 29.58 29.58 0 0 1  384.58 29.58 L 355 59.16 A 29.58 29.58 0 0 0 384.58 29.58" fill="#fde5d3"/><path d="M 384.58 59.16 A 29.58 29.58 0 0 1  414.15999999999997 29.58 L 384.58 59.16 A 29.58 29.58 0 0 0 414.15999999999997 29.58" fill="#fafcfc"/><rect x="414.16666666666663" y="0" width="59.166666666666664" height="59.166666666666664" fill="#ffffff"/><polygon points="443.75,0 443.75,29.58 414.17,29.58" fill="#319383"/><rect x="443.75" y="0" width="29.58" height="29.58" fill="#f8af78"/><path d="M 414.17 59.16 A 29.58 29.58 0 0 1  443.75 29.58 L 414.17 59.16 A 29.58 29.58 0 0 0 443.75 29.58" fill="#f58837"/><path d="M 443.75 59.16 A 29.58 29.58 0 0 1  473.33 29.58 L 443.75 59.16 A 29.58 29.58 0 0 0 473.33 29.58" fill="#fef4ed"/><rect x="473.3333333333333" y="0" width="59.166666666666664" height="59.166666666666664" fill="#ffffff"/><path d="M 473.33 0 A 29.58 29.58 0 0 1 502.90999999999997 29.58 L 473.33 29.58" fill="#f79c5a"/><path d="M 502.92 0 A 29.58 29.58 0 0 1  532.5 29.58 L 502.92 0 A 29.58 29.58 0 0 0 532.5 29.58" fill="#fac299"/><rect x="473.33" y="29.58" width="29.58" height="29.58" fill="#188674"/><rect x="502.92" y="29.58" width="29.58" height="29.58" fill="#0f816e"/><rect x="532.5" y="0" width="59.166666666666664" height="59.166666666666664" fill="#ffffff"/><polygon points="532.5,0 562.08,29.58 532.5,29.58" fill="#148471"/><path d="M 562.08 0 A 29.58 29.58 0 0 1 591.6600000000001 29.58 L 562.08 29.58" fill="#fcdec7"/><path d="M 532.5 59.16 A 29.58 29.58 0 0 1  562.08 29.58 L 562.08 59.16" fill="#f7a162"/><path d="M 562.08 29.58 A 29.58 29.58 0 0 1  591.6600000000001 59.16 L 562.08 29.58 A 29.58 29.58 0 0 0 591.6600000000001 59.16" fill="#f8a86d"/><rect x="591.6666666666666" y="0" width="59.166666666666664" height="59.166666666666664" fill="#ffffff"/><path d="M 591.67 0 A 29.58 29.58 0 0 1  621.25 29.58 L 591.67 0 A 29.58 29.58 0 0 0 621.25 29.58" fill="#fef6f0"/><path d="M 621.25 0 A 29.58 29.58 0 0 1  650.83 29.58 L 621.25 0 A 29.58 29.58 0 0 0 650.83 29.58" fill="#fac197"/><path d="M 591.67 29.58 A 29.58 29.58 0 0 1 621.25 59.16 L 591.67 59.16" fill="#81bdb3"/><path d="M 621.25 29.58 A 29.58 29.58 0 0 0 650.83 59.16 L 650.83 29.58" fill="#3f9a8b"/><rect x="0" y="59.17" width="59.17" height="59.17" fill="#fce0cb"/><rect x="59.17" y="59.17" width="59.17" height="59.17" fill="#f9b888"/><rect x="118.33333333333333" y="59.166666666666664" width="59.166666666666664" height="59.166666666666664" fill="#ffffff"/><path d="M 118.33 59.17 A 29.58 29.58 0 0 1  147.91 88.75 L 118.33 59.17 A 29.58 29.58 0 0 0 147.91 88.75" fill="#d5e9e6"/><rect x="147.92" y="59.17" width="29.58" height="29.58" fill="#fde7d7"/><path d="M 118.33 88.75 A 29.58 29.58 0 0 0 147.91 118.33 L 147.91 88.75" fill="#fffefd"/><path d="M 147.92 118.33 A 29.58 29.58 0 0 1  177.5 88.75 L 147.92 118.33 A 29.58 29.58 0 0 0 177.5 88.75" fill="#f6954c"/><rect x="177.5" y="59.17" width="59.17" height="59.17" fill="#fabe92"/><rect x="236.67" y="59.17" width="59.17" height="59.17" fill="#f8fbfb"/><rect x="295.8333333333333" y="59.166666666666664" width="59.166666666666664" height="59.166666666666664" fill="#ffffff"/><polygon points="295.83,59.17 325.40999999999997,59.17 325.40999999999997,88.75" fill="#0e806d"/><path d="M 325.42 59.17 A 29.58 29.58 0 0 1  355 88.75 L 325.42 59.17 A 29.58 29.58 0 0 0 355 88.75" fill="#f79853"/><path d="M 295.83 118.33 A 29.58 29.58 0 0 0 325.40999999999997 88.75 L 295.83 88.75" fill="#f4f9f8"/><rect x="325.42" y="88.75" width="29.58" height="29.58" fill="#fac095"/><rect x="355" y="59.166666666666664" width="59.166666666666664" height="59.166666666666664" fill="#ffffff"/><rect x="355" y="59.17" width="29.58" height="29.58" fill="#248c7b"/><rect x="384.58" y="59.17" width="29.58" height="29.58" fill="#fef5ee"/><path d="M 355 118.33 A 29.58 29.58 0 0 1  384.58 88.75 L 355 118.33 A 29.58 29.58 0 0 0 384.58 88.75" fill="#f79c59"/><path d="M 384.58 118.33 A 29.58 29.58 0 0 1  414.15999999999997 88.75 L 384.58 118.33 A 29.58 29.58 0 0 0 414.15999999999997 88.75" fill="#4aa092"/><rect x="414.16666666666663" y="59.166666666666664" width="59.166666666666664" height="59.166666666666664" fill="#ffffff"/><path d="M 414.17 59.17 A 29.58 29.58 0 0 0 443.75 88.75 L 443.75 59.17" fill="#fbcfae"/><rect x="443.75" y="59.17" width="29.58" height="29.58" fill="#fbd3b6"/><path d="M 414.17 118.33 A 29.58 29.58 0 0 1  443.75 88.75 L 414.17 118.33 A 29.58 29.58 0 0 0 443.75 88.75" fill="#fcdbc3"/><polygon points="443.75,88.75 473.33,88.75 443.75,118.33" fill="#add4cd"/><rect x="473.3333333333333" y="59.166666666666664" width="59.166666666666664" height="59.166666666666664" fill="#ffffff"/><path d="M 473.33 59.17 A 29.58 29.58 0 0 1  502.90999999999997 88.75 L 473.33 59.17 A 29.58 29.58 0 0 0 502.90999999999997 88.75" fill="#2d9080"/><path d="M 502.92 88.75 A 29.58 29.58 0 0 1  532.5 59.17 L 502.92 88.75 A 29.58 29.58 0 0 0 532.5 59.17" fill="#fffbf8"/><path d="M 473.33 88.75 A 29.58 29.58 0 0 1  502.90999999999997 118.33 L 473.33 88.75 A 29.58 29.58 0 0 0 502.90999999999997 118.33" fill="#f8a96f"/><path d="M 502.92 88.75 A 29.58 29.58 0 0 1  532.5 118.33 L 502.92 88.75 A 29.58 29.58 0 0 0 532.5 118.33" fill="#fac69f"/><rect x="532.5" y="59.166666666666664" width="59.166666666666664" height="59.166666666666664" fill="#ffffff"/><path d="M 532.5 59.17 A 29.58 29.58 0 0 1  562.08 88.75 L 532.5 59.17 A 29.58 29.58 0 0 0 562.08 88.75" fill="#f69349"/><path d="M 562.08 59.17 A 29.58 29.58 0 0 1 591.6600000000001 88.75 L 562.08 88.75" fill="#7dbab0"/><path d="M 532.5 118.33 A 29.58 29.58 0 0 1  562.08 88.75 L 532.5 118.33 A 29.58 29.58 0 0 0 562.08 88.75" fill="#fde2ce"/><rect x="562.08" y="88.75" width="29.58" height="29.58" fill="#fac095"/><path d="M 591.67 118.34 A 59.17 59.17 0 0 0 650.8399999999999 59.17 L 591.67 59.17" fill="#f79953"/><rect x="0" y="118.33333333333333" width="59.166666666666664" height="59.166666666666664" fill="#ffffff"/><path d="M 0 147.91 A 29.58 29.58 0 0 1  29.58 118.33 L 0 147.91 A 29.58 29.58 0 0 0 29.58 118.33" fill="#f79953"/><polygon points="29.58,118.33 59.16,147.91 29.58,147.91" fill="#0a7e6b"/><path d="M 0 147.92 A 29.58 29.58 0 0 1  29.58 177.5 L 0 147.92 A 29.58 29.58 0 0 0 29.58 177.5" fill="#7bbaaf"/><polygon points="29.58,147.92 59.16,147.92 29.58,177.5" fill="#f8ad75"/><rect x="59.166666666666664" y="118.33333333333333" width="59.166666666666664" height="59.166666666666664" fill="#ffffff"/><polygon points="88.75,118.33 88.75,147.91 59.17,147.91" fill="#feeee2"/><polygon points="88.75,118.33 118.33,118.33 118.33,147.91" fill="#fbcfaf"/><polygon points="59.17,147.92 88.75,147.92 88.75,177.5" fill="#fbcba9"/><path d="M 88.75 177.5 A 29.58 29.58 0 0 1  118.33 147.92 L 88.75 177.5 A 29.58 29.58 0 0 0 118.33 147.92" fill="#1a8775"/><path d="M 118.33 177.5 A 59.17 59.17 0 0 1  177.5 118.33 L 118.33 177.5 A 59.17 59.17 0 0 0 177.5 118.33" fill="#4ca193"/><rect x="177.5" y="118.33" width="59.17" height="59.17" fill="#fde4d2"/><polygon points="236.67,118.33 295.84,118.33 236.67,177.5" fill="#8bc2b9"/><path d="M 295.83 118.33 A 59.17 59.17 0 0 1 355 177.5 L 295.83 177.5" fill="#62ada0"/><rect x="355" y="118.33333333333333" width="59.166666666666664" height="59.166666666666664" fill="#ffffff"/><path d="M 355 118.33 A 29.58 29.58 0 0 1  384.58 147.91 L 355 118.33 A 29.58 29.58 0 0 0 384.58 147.91" fill="#3d998a"/><path d="M 384.58 118.33 A 29.58 29.58 0 0 1  414.15999999999997 147.91 L 384.58 118.33 A 29.58 29.58 0 0 0 414.15999999999997 147.91" fill="#b3d7d1"/><path d="M 355 147.92 A 29.58 29.58 0 0 1  384.58 177.5 L 355 147.92 A 29.58 29.58 0 0 0 384.58 177.5" fill="#f58837"/><path d="M 384.58 177.5 A 29.58 29.58 0 0 1  414.15999999999997 147.92 L 384.58 177.5 A 29.58 29.58 0 0 0 414.15999999999997 147.92" fill="#b2d7d1"/><path d="M 414.17 177.5 A 59.17 59.17 0 0 1  473.34000000000003 118.33 L 414.17 177.5 A 59.17 59.17 0 0 0 473.34000000000003 118.33" fill="#f68f43"/><polygon points="473.33,118.33 532.5,177.5 473.33,177.5" fill="#e7f3f1"/><rect x="532.5" y="118.33" width="59.17" height="59.17" fill="#057c68"/><rect x="591.6666666666666" y="118.33333333333333" width="59.166666666666664" height="59.166666666666664" fill="#ffffff"/><polygon points="591.67,118.33 621.25,147.91 591.67,147.91" fill="#f69349"/><path d="M 621.25 147.91 A 29.58 29.58 0 0 1  650.83 118.33 L 621.25 147.91 A 29.58 29.58 0 0 0 650.83 118.33" fill="#81bdb3"/><rect x="591.67" y="147.92" width="29.58" height="29.58" fill="#acd3cd"/><path d="M 621.25 147.92 A 29.58 29.58 0 0 1  650.83 177.5 L 621.25 147.92 A 29.58 29.58 0 0 0 650.83 177.5" fill="#57a799"/><rect x="0" y="177.5" width="59.166666666666664" height="59.166666666666664" fill="#ffffff"/><rect x="0" y="177.5" width="29.58" height="29.58" fill="#fbd4b7"/><polygon points="59.16,177.5 59.16,207.07999999999998 29.58,207.07999999999998" fill="#fde9db"/><polygon points="0,207.08 29.58,207.08 29.58,236.66000000000003" fill="#f9b583"/><rect x="29.58" y="207.08" width="29.58" height="29.58" fill="#1f8978"/><rect x="59.166666666666664" y="177.5" width="59.166666666666664" height="59.166666666666664" fill="#ffffff"/><polygon points="59.17,177.5 88.75,207.07999999999998 59.17,207.07999999999998" fill="#f1f8f7"/><polygon points="88.75,177.5 118.33,207.07999999999998 88.75,207.07999999999998" fill="#f8b07a"/><rect x="59.17" y="207.08" width="29.58" height="29.58" fill="#f69248"/><path d="M 88.75 207.08 A 29.58 29.58 0 0 1  118.33 236.66000000000003 L 88.75 207.08 A 29.58 29.58 0 0 0 118.33 236.66000000000003" fill="#f79d5b"/><polygon points="118.33,177.5 177.5,177.5 118.33,236.67000000000002" fill="#f8a86c"/><path d="M 177.5 177.5 A 59.17 59.17 0 0 1  236.67000000000002 236.67000000000002 L 177.5 177.5 A 59.17 59.17 0 0 0 236.67000000000002 236.67000000000002" fill="#f69044"/><path d="M 236.67 236.67000000000002 A 59.17 59.17 0 0 1  295.84 177.5 L 236.67 236.67000000000002 A 59.17 59.17 0 0 0 295.84 177.5" fill="#fac095"/><rect x="295.8333333333333" y="177.5" width="59.166666666666664" height="59.166666666666664" fill="#ffffff"/><path d="M 295.83 207.07999999999998 A 29.58 29.58 0 0 1  325.40999999999997 177.5 L 295.83 207.07999999999998 A 29.58 29.58 0 0 0 325.40999999999997 177.5" fill="#49a091"/><rect x="325.42" y="177.5" width="29.58" height="29.58" fill="#fcdac1"/><path d="M 295.83 236.66000000000003 A 29.58 29.58 0 0 1  325.40999999999997 207.08 L 325.40999999999997 236.66000000000003" fill="#f9b786"/><rect x="325.42" y="207.08" width="29.58" height="29.58" fill="#fbcdac"/><rect x="355" y="177.5" width="59.166666666666664" height="59.166666666666664" fill="#ffffff"/><path d="M 355 177.5 A 29.58 29.58 0 0 0 384.58 207.07999999999998 L 384.58 177.5" fill="#9dcbc4"/><path d="M 384.58 177.5 A 29.58 29.58 0 0 1  414.15999999999997 207.07999999999998 L 384.58 177.5 A 29.58 29.58 0 0 0 414.15999999999997 207.07999999999998" fill="#027a66"/><rect x="355" y="207.08" width="29.58" height="29.58" fill="#99c9c1"/><path d="M 384.58 236.66000000000003 A 29.58 29.58 0 0 1  414.15999999999997 207.08 L 384.58 236.66000000000003 A 29.58 29.58 0 0 0 414.15999999999997 207.08" fill="#f68f43"/><rect x="414.16666666666663" y="177.5" width="59.166666666666664" height="59.166666666666664" fill="#ffffff"/><rect x="414.17" y="177.5" width="29.58" height="29.58" fill="#6eb3a7"/><path d="M 443.75 177.5 A 29.58 29.58 0 0 1  473.33 207.07999999999998 L 443.75 177.5 A 29.58 29.58 0 0 0 473.33 207.07999999999998" fill="#acd3cd"/><rect x="414.17" y="207.08" width="29.58" height="29.58" fill="#a6d0c9"/><rect x="443.75" y="207.08" width="29.58" height="29.58" fill="#fdebde"/><path d="M 473.33 177.5 A 59.17 59.17 0 0 1  532.5 236.67000000000002 L 473.33 177.5 A 59.17 59.17 0 0 0 532.5 236.67000000000002" fill="#f58a3b"/><rect x="532.5" y="177.5" width="59.17" height="59.17" fill="#c0ded9"/><rect x="591.6666666666666" y="177.5" width="59.166666666666664" height="59.166666666666664" fill="#ffffff"/><path d="M 591.67 207.07999999999998 A 29.58 29.58 0 0 1  621.25 177.5 L 621.25 207.07999999999998" fill="#fffaf6"/><path d="M 621.25 177.5 A 29.58 29.58 0 0 1  650.83 207.07999999999998 L 621.25 177.5 A 29.58 29.58 0 0 0 650.83 207.07999999999998" fill="#258c7b"/><path d="M 591.67 207.08 A 29.58 29.58 0 0 1 621.25 236.66000000000003 L 591.67 236.66000000000003" fill="#fcdec8"/><path d="M 621.25 236.66000000000003 A 29.58 29.58 0 0 1  650.83 207.08 L 650.83 236.66000000000003" fill="#bfddd8"/><path d="M 0 295.84 A 59.17 59.17 0 0 1  59.17 236.67 L 0 295.84 A 59.17 59.17 0 0 0 59.17 236.67" fill="#f9b887"/><rect x="59.166666666666664" y="236.66666666666666" width="59.166666666666664" height="59.166666666666664" fill="#ffffff"/><polygon points="59.17,236.67 88.75,266.25 59.17,266.25" fill="#bcdcd7"/><rect x="88.75" y="236.67" width="29.58" height="29.58" fill="#077d69"/><path d="M 59.17 266.25 A 29.58 29.58 0 0 0 88.75 295.83 L 88.75 266.25" fill="#2d9080"/><rect x="88.75" y="266.25" width="29.58" height="29.58" fill="#f0f7f6"/><polygon points="118.33,236.67 177.5,295.84 118.33,295.84" fill="#f9b17d"/><path d="M 177.5 236.67 A 59.17 59.17 0 0 1  236.67000000000002 295.84 L 177.5 236.67 A 59.17 59.17 0 0 0 236.67000000000002 295.84" fill="#fbcaa6"/><path d="M 236.67 236.67 A 59.17 59.17 0 0 1  295.84 295.84 L 236.67 236.67 A 59.17 59.17 0 0 0 295.84 295.84" fill="#c0ded9"/><rect x="295.8333333333333" y="236.66666666666666" width="59.166666666666664" height="59.166666666666664" fill="#ffffff"/><polygon points="295.83,236.67 325.40999999999997,266.25 295.83,266.25" fill="#fef9f4"/><path d="M 325.42 236.67 A 29.58 29.58 0 0 0 355 266.25 L 355 236.67" fill="#f5faf9"/><rect x="295.83" y="266.25" width="29.58" height="29.58" fill="#badbd5"/><path d="M 325.42 295.83 A 29.58 29.58 0 0 1  355 266.25 L 325.42 295.83 A 29.58 29.58 0 0 0 355 266.25" fill="#f8ab71"/><path d="M 355 295.84 A 59.17 59.17 0 0 0 414.17 236.67 L 355 236.67" fill="#fcddc5"/><rect x="414.16666666666663" y="236.66666666666666" width="59.166666666666664" height="59.166666666666664" fill="#ffffff"/><path d="M 414.17 236.67 A 29.58 29.58 0 0 1  443.75 266.25 L 414.17 236.67 A 29.58 29.58 0 0 0 443.75 266.25" fill="#eef6f5"/><polygon points="443.75,236.67 473.33,236.67 473.33,266.25" fill="#fef1e7"/><polygon points="414.17,266.25 443.75,295.83 414.17,295.83" fill="#0d806d"/><polygon points="443.75,266.25 473.33,266.25 473.33,295.83" fill="#d7eae7"/><path d="M 473.33 295.84 A 59.17 59.17 0 0 1  532.5 236.67 L 473.33 295.84 A 59.17 59.17 0 0 0 532.5 236.67" fill="#a7d1ca"/><rect x="532.5" y="236.66666666666666" width="59.166666666666664" height="59.166666666666664" fill="#ffffff"/><rect x="532.5" y="236.67" width="29.58" height="29.58" fill="#fbd2b4"/><path d="M 562.08 236.67 A 29.58 29.58 0 0 1  591.6600000000001 266.25 L 562.08 236.67 A 29.58 29.58 0 0 0 591.6600000000001 266.25" fill="#e7f3f1"/><path d="M 532.5 295.83 A 29.58 29.58 0 0 1  562.08 266.25 L 562.08 295.83" fill="#64ada1"/><rect x="562.08" y="266.25" width="29.58" height="29.58" fill="#bdddd7"/><rect x="591.6666666666666" y="236.66666666666666" width="59.166666666666664" height="59.166666666666664" fill="#ffffff"/><rect x="591.67" y="236.67" width="29.58" height="29.58" fill="#a4cfc8"/><path d="M 621.25 236.67 A 29.58 29.58 0 0 1  650.83 266.25 L 621.25 236.67 A 29.58 29.58 0 0 0 650.83 266.25" fill="#81bdb3"/><rect x="591.67" y="266.25" width="29.58" height="29.58" fill="#c5e1dc"/><path d="M 621.25 266.25 A 29.58 29.58 0 0 1  650.83 295.83 L 621.25 266.25 A 29.58 29.58 0 0 0 650.83 295.83" fill="#2b907f"/><path d="M 0 355 A 59.17 59.17 0 0 1  59.17 295.83 L 0 355 A 59.17 59.17 0 0 0 59.17 295.83" fill="#76b7ac"/><rect x="59.166666666666664" y="295.8333333333333" width="59.166666666666664" height="59.166666666666664" fill="#ffffff"/><rect x="59.17" y="295.83" width="29.58" height="29.58" fill="#5eaa9e"/><rect x="88.75" y="295.83" width="29.58" height="29.58" fill="#3e9a8b"/><rect x="59.17" y="325.42" width="29.58" height="29.58" fill="#f8af79"/><rect x="88.75" y="325.42" width="29.58" height="29.58" fill="#1d8876"/><rect x="118.33333333333333" y="295.8333333333333" width="59.166666666666664" height="59.166666666666664" fill="#ffffff"/><polygon points="118.33,295.83 147.91,295.83 147.91,325.40999999999997" fill="#65aea2"/><rect x="147.92" y="295.83" width="29.58" height="29.58" fill="#f9b98a"/><polygon points="118.33,325.42 147.91,325.42 118.33,355" fill="#f58c3e"/><path d="M 147.92 355 A 29.58 29.58 0 0 0 177.5 325.42 L 147.92 325.42" fill="#f68f43"/><path d="M 177.5 295.83 A 59.17 59.17 0 0 1  236.67000000000002 355 L 177.5 295.83 A 59.17 59.17 0 0 0 236.67000000000002 355" fill="#f6954e"/><rect x="236.66666666666666" y="295.8333333333333" width="59.166666666666664" height="59.166666666666664" fill="#ffffff"/><path d="M 236.67 295.83 A 29.58 29.58 0 0 1 266.25 325.40999999999997 L 236.67 325.40999999999997" fill="#deeeeb"/><path d="M 266.25 295.83 A 29.58 29.58 0 0 0 295.83 325.40999999999997 L 295.83 295.83" fill="#c7e2dd"/><path d="M 236.67 325.42 A 29.58 29.58 0 0 1  266.25 355 L 236.67 325.42 A 29.58 29.58 0 0 0 266.25 355" fill="#e7f3f1"/><path d="M 266.25 325.42 A 29.58 29.58 0 0 1  295.83 355 L 266.25 325.42 A 29.58 29.58 0 0 0 295.83 355" fill="#cde5e1"/><rect x="295.8333333333333" y="295.8333333333333" width="59.166666666666664" height="59.166666666666664" fill="#ffffff"/><rect x="295.83" y="295.83" width="29.58" height="29.58" fill="#60ac9f"/><path d="M 325.42 325.40999999999997 A 29.58 29.58 0 0 0 355 295.83 L 325.42 295.83" fill="#80bcb2"/><path d="M 295.83 355 A 29.58 29.58 0 0 1  325.40999999999997 325.42 L 325.40999999999997 355" fill="#97c9c0"/><polygon points="325.42,325.42 355,325.42 325.42,355" fill="#b7d9d4"/><path d="M 355 295.83 A 59.17 59.17 0 0 1  414.17 355 L 355 295.83 A 59.17 59.17 0 0 0 414.17 355" fill="#057b68"/><rect x="414.16666666666663" y="295.8333333333333" width="59.166666666666664" height="59.166666666666664" fill="#ffffff"/><rect x="414.17" y="295.83" width="29.58" height="29.58" fill="#d9ebe8"/><rect x="443.75" y="295.83" width="29.58" height="29.58" fill="#64aea1"/><path d="M 414.17 325.42 A 29.58 29.58 0 0 1  443.75 355 L 414.17 325.42 A 29.58 29.58 0 0 0 443.75 355" fill="#f79b58"/><path d="M 443.75 325.42 A 29.58 29.58 0 0 1  473.33 355 L 443.75 325.42 A 29.58 29.58 0 0 0 473.33 355" fill="#f68f44"/><rect x="473.33" y="295.83" width="59.17" height="59.17" fill="#f9b480"/><rect x="532.5" y="295.8333333333333" width="59.166666666666664" height="59.166666666666664" fill="#ffffff"/><path d="M 532.5 325.40999999999997 A 29.58 29.58 0 0 0 562.08 295.83 L 532.5 295.83" fill="#90c5bc"/><path d="M 562.08 295.83 A 29.58 29.58 0 0 0 591.6600000000001 325.40999999999997 L 591.6600000000001 295.83" fill="#2c907f"/><rect x="532.5" y="325.42" width="29.58" height="29.58" fill="#d9ebe8"/><path d="M 562.08 325.42 A 29.58 29.58 0 0 1  591.6600000000001 355 L 562.08 325.42 A 29.58 29.58 0 0 0 591.6600000000001 355" fill="#f6934a"/><path d="M 591.67 295.83 A 59.17 59.17 0 0 1  650.8399999999999 355 L 591.67 295.83 A 59.17 59.17 0 0 0 650.8399999999999 355" fill="#f8aa71"/></g></svg>