<?xml version="1.0" standalone="no"?><svg xmlns:xlink="http://www.w3.org/1999/xlink" xmlns="http://www.w3.org/2000/svg" viewBox="0 0 1000 545.4590152851445" preserveAspectRatio="xMaxYMax slice"><g transform="scale(1.5365042684088577)"><rect x="0" y="0" width="650.8333333333333" height="355" fill="#F68F43"/><rect x="59.166666666666664" y="0" width="59.166666666666664" height="59.166666666666664" fill="#F68F43"/><path d="M 88.75 29.58 A 29.58 29.58 0 0 0 118.33 0 L 88.75 0" fill="#f8a668"/><path d="M 59.17 29.58 A 29.58 29.58 0 0 1  88.75 59.16 L 59.17 29.58 A 29.58 29.58 0 0 0 88.75 59.16" fill="#f8a363"/><path d="M 118.33 59.17 A 59.17 59.17 0 0 1  177.5 0 L 118.33 59.17 A 59.17 59.17 0 0 0 177.5 0" fill="#f79b57"/><path d="M 236.67 59.17 A 59.17 59.17 0 0 1  295.84 0 L 236.67 59.17 A 59.17 59.17 0 0 0 295.84 0" fill="#f69247"/><rect x="295.8333333333333" y="0" width="59.166666666666664" height="59.166666666666664" fill="#F68F43"/><path d="M 295.83 29.58 A 29.58 29.58 0 0 1  325.40999999999997 0 L 295.83 29.58 A 29.58 29.58 0 0 0 325.40999999999997 0" fill="#f7964f"/><path d="M 325.42 29.58 A 29.58 29.58 0 0 1  355 0 L 325.42 29.58 A 29.58 29.58 0 0 0 355 0" fill="#f79d5b"/><rect x="355" y="0" width="59.166666666666664" height="59.166666666666664" fill="#F68F43"/><path d="M 355 0 A 29.58 29.58 0 0 0 384.58 29.58 L 384.58 0" fill="#f8a263"/><path d="M 355 29.58 A 29.58 29.58 0 0 0 384.58 59.16 L 384.58 29.58" fill="#f6934a"/><path d="M 414.17 59.17 A 59.17 59.17 0 0 1  473.34000000000003 0 L 473.34000000000003 59.17" fill="#f69045"/><rect x="473.3333333333333" y="0" width="59.166666666666664" height="59.166666666666664" fill="#F68F43"/><path d="M 473.33 29.58 A 29.58 29.58 0 0 1  502.90999999999997 0 L 473.33 29.58 A 29.58 29.58 0 0 0 502.90999999999997 0" fill="#f69044"/><rect x="59.166666666666664" y="59.166666666666664" width="59.166666666666664" height="59.166666666666664" fill="#F68F43"/><path d="M 59.17 88.75 A 29.58 29.58 0 0 1  88.75 59.17 L 59.17 88.75 A 29.58 29.58 0 0 0 88.75 59.17" fill="#f79b56"/><path d="M 59.17 118.33 A 29.58 29.58 0 0 1  88.75 88.75 L 59.17 118.33 A 29.58 29.58 0 0 0 88.75 88.75" fill="#f69248"/><path d="M 88.75 88.75 A 29.58 29.58 0 0 0 118.33 118.33 L 118.33 88.75" fill="#f79d5a"/><rect x="118.33333333333333" y="59.166666666666664" width="59.166666666666664" height="59.166666666666664" fill="#F68F43"/><path d="M 147.92 59.17 A 29.58 29.58 0 0 1  177.5 88.75 L 147.92 59.17 A 29.58 29.58 0 0 0 177.5 88.75" fill="#f7a060"/><path d="M 236.67 118.34 A 59.17 59.17 0 0 1  295.84 59.17 L 236.67 118.34 A 59.17 59.17 0 0 0 295.84 59.17" fill="#f8a669"/><rect x="295.8333333333333" y="59.166666666666664" width="59.166666666666664" height="59.166666666666664" fill="#F68F43"/><path d="M 295.83 118.33 A 29.58 29.58 0 0 1  325.40999999999997 88.75 L 295.83 118.33 A 29.58 29.58 0 0 0 325.40999999999997 88.75" fill="#f7a161"/><path d="M 325.42 88.75 A 29.58 29.58 0 0 1  355 118.33 L 325.42 88.75 A 29.58 29.58 0 0 0 355 118.33" fill="#f7954e"/><rect x="355" y="59.166666666666664" width="59.166666666666664" height="59.166666666666664" fill="#F68F43"/><path d="M 384.58 88.75 A 29.58 29.58 0 0 1  414.15999999999997 59.17 L 384.58 88.75 A 29.58 29.58 0 0 0 414.15999999999997 59.17" fill="#f79954"/><path d="M 355 118.33 A 29.58 29.58 0 0 1  384.58 88.75 L 355 118.33 A 29.58 29.58 0 0 0 384.58 88.75" fill="#f79f5d"/><path d="M 384.58 88.75 A 29.58 29.58 0 0 1  414.15999999999997 118.33 L 384.58 88.75 A 29.58 29.58 0 0 0 414.15999999999997 118.33" fill="#f8a465"/><rect x="414.16666666666663" y="59.166666666666664" width="59.166666666666664" height="59.166666666666664" fill="#F68F43"/><path d="M 414.17 59.17 A 29.58 29.58 0 0 1  443.75 88.75 L 414.17 59.17 A 29.58 29.58 0 0 0 443.75 88.75" fill="#f7a05f"/><path d="M 443.75 59.17 A 29.58 29.58 0 0 1  473.33 88.75 L 443.75 59.17 A 29.58 29.58 0 0 0 473.33 88.75" fill="#f79b57"/><path d="M 414.17 118.33 A 29.58 29.58 0 0 1  443.75 88.75 L 443.75 118.33" fill="#f79b57"/><path d="M 443.75 88.75 A 29.58 29.58 0 0 1  473.33 118.33 L 443.75 88.75 A 29.58 29.58 0 0 0 473.33 118.33" fill="#f79953"/><rect x="473.3333333333333" y="59.166666666666664" width="59.166666666666664" height="59.166666666666664" fill="#F68F43"/><path d="M 473.33 59.17 A 29.58 29.58 0 0 1  502.90999999999997 88.75 L 473.33 59.17 A 29.58 29.58 0 0 0 502.90999999999997 88.75" fill="#f79953"/><path d="M 502.92 59.17 A 29.58 29.58 0 0 1  532.5 88.75 L 502.92 59.17 A 29.58 29.58 0 0 0 532.5 88.75" fill="#f8a669"/><path d="M 473.33 118.33 A 29.58 29.58 0 0 1  502.90999999999997 88.75 L 473.33 118.33 A 29.58 29.58 0 0 0 502.90999999999997 88.75" fill="#f8a568"/><path d="M 502.92 88.75 A 29.58 29.58 0 0 1  532.5 118.33 L 502.92 88.75 A 29.58 29.58 0 0 0 532.5 118.33" fill="#f6944b"/><path d="M 0 177.5 A 59.17 59.17 0 0 1  59.17 118.33 L 0 177.5 A 59.17 59.17 0 0 0 59.17 118.33" fill="#f79f5e"/><rect x="59.166666666666664" y="118.33333333333333" width="59.166666666666664" height="59.166666666666664" fill="#F68F43"/><path d="M 59.17 118.33 A 29.58 29.58 0 0 0 88.75 147.91 L 88.75 118.33" fill="#f69248"/><path d="M 88.75 118.33 A 29.58 29.58 0 0 1  118.33 147.91 L 88.75 118.33 A 29.58 29.58 0 0 0 118.33 147.91" fill="#f7a262"/><path d="M 88.75 147.92 A 29.58 29.58 0 0 1  118.33 177.5 L 88.75 147.92 A 29.58 29.58 0 0 0 118.33 177.5" fill="#f6944b"/><path d="M 118.33 177.5 A 59.17 59.17 0 0 1  177.5 118.33 L 118.33 177.5 A 59.17 59.17 0 0 0 177.5 118.33" fill="#f79f5d"/><path d="M 177.5 177.5 A 59.17 59.17 0 0 1  236.67000000000002 118.33 L 177.5 177.5 A 59.17 59.17 0 0 0 236.67000000000002 118.33" fill="#f79f5d"/><path d="M 295.83 177.5 A 59.17 59.17 0 0 1  355 118.33 L 295.83 177.5 A 59.17 59.17 0 0 0 355 118.33" fill="#f69349"/><rect x="355" y="118.33333333333333" width="59.166666666666664" height="59.166666666666664" fill="#F68F43"/><path d="M 384.58 118.33 A 29.58 29.58 0 0 1  414.15999999999997 147.91 L 384.58 118.33 A 29.58 29.58 0 0 0 414.15999999999997 147.91" fill="#f8a363"/><path d="M 355 177.5 A 29.58 29.58 0 0 0 384.58 147.92 L 355 147.92" fill="#f7a161"/><path d="M 384.58 177.5 A 29.58 29.58 0 0 0 414.15999999999997 147.92 L 384.58 147.92" fill="#f7954e"/><rect x="414.16666666666663" y="118.33333333333333" width="59.166666666666664" height="59.166666666666664" fill="#F68F43"/><path d="M 414.17 118.33 A 29.58 29.58 0 0 1  443.75 147.91 L 414.17 118.33 A 29.58 29.58 0 0 0 443.75 147.91" fill="#f6934a"/><path d="M 414.17 177.5 A 29.58 29.58 0 0 1  443.75 147.92 L 414.17 177.5 A 29.58 29.58 0 0 0 443.75 147.92" fill="#f6934a"/><path d="M 443.75 147.92 A 29.58 29.58 0 0 1  473.33 177.5 L 443.75 147.92 A 29.58 29.58 0 0 0 473.33 177.5" fill="#f7a160"/><path d="M 473.33 118.33 A 59.17 59.17 0 0 0 532.5 177.5 L 532.5 118.33" fill="#f68f43"/><path d="M 532.5 177.5 A 59.17 59.17 0 0 1  591.67 118.33 L 591.67 177.5" fill="#f6944b"/><path d="M 591.67 177.5 A 59.17 59.17 0 0 1  650.8399999999999 118.33 L 591.67 177.5 A 59.17 59.17 0 0 0 650.8399999999999 118.33" fill="#f79c58"/><rect x="59.166666666666664" y="177.5" width="59.166666666666664" height="59.166666666666664" fill="#F68F43"/><path d="M 59.17 177.5 A 29.58 29.58 0 0 1  88.75 207.07999999999998 L 59.17 177.5 A 29.58 29.58 0 0 0 88.75 207.07999999999998" fill="#f8a365"/><path d="M 88.75 177.5 A 29.58 29.58 0 0 0 118.33 207.07999999999998 L 118.33 177.5" fill="#f79750"/><path d="M 118.33 177.5 A 59.17 59.17 0 0 1 177.5 236.67000000000002 L 118.33 236.67000000000002" fill="#f79e5b"/><path d="M 177.5 177.5 A 59.17 59.17 0 0 1  236.67000000000002 236.67000000000002 L 177.5 177.5 A 59.17 59.17 0 0 0 236.67000000000002 236.67000000000002" fill="#f79f5d"/><rect x="236.66666666666666" y="177.5" width="59.166666666666664" height="59.166666666666664" fill="#F68F43"/><path d="M 236.67 207.07999999999998 A 29.58 29.58 0 0 1  266.25 177.5 L 236.67 207.07999999999998 A 29.58 29.58 0 0 0 266.25 177.5" fill="#f79750"/><path d="M 266.25 177.5 A 29.58 29.58 0 0 0 295.83 207.07999999999998 L 295.83 177.5" fill="#f8a76b"/><path d="M 236.67 236.66000000000003 A 29.58 29.58 0 0 1  266.25 207.08 L 236.67 236.66000000000003 A 29.58 29.58 0 0 0 266.25 207.08" fill="#f8a465"/><path d="M 266.25 207.08 A 29.58 29.58 0 0 1  295.83 236.66000000000003 L 266.25 207.08 A 29.58 29.58 0 0 0 295.83 236.66000000000003" fill="#f79f5c"/><path d="M 355 177.5 A 59.17 59.17 0 0 1  414.17 236.67000000000002 L 355 177.5 A 59.17 59.17 0 0 0 414.17 236.67000000000002" fill="#f79751"/><rect x="414.16666666666663" y="177.5" width="59.166666666666664" height="59.166666666666664" fill="#F68F43"/><path d="M 414.17 207.07999999999998 A 29.58 29.58 0 0 1  443.75 177.5 L 414.17 207.07999999999998 A 29.58 29.58 0 0 0 443.75 177.5" fill="#f7a160"/><path d="M 414.17 207.08 A 29.58 29.58 0 0 1  443.75 236.66000000000003 L 414.17 207.08 A 29.58 29.58 0 0 0 443.75 236.66000000000003" fill="#f79953"/><path d="M 443.75 236.66000000000003 A 29.58 29.58 0 0 1  473.33 207.08 L 443.75 236.66000000000003 A 29.58 29.58 0 0 0 473.33 207.08" fill="#f6934a"/><rect x="473.3333333333333" y="177.5" width="59.166666666666664" height="59.166666666666664" fill="#F68F43"/><path d="M 473.33 207.07999999999998 A 29.58 29.58 0 0 1  502.90999999999997 177.5 L 473.33 207.07999999999998 A 29.58 29.58 0 0 0 502.90999999999997 177.5" fill="#f8a566"/><path d="M 502.92 177.5 A 29.58 29.58 0 0 1  532.5 207.07999999999998 L 502.92 177.5 A 29.58 29.58 0 0 0 532.5 207.07999999999998" fill="#f8a76a"/><path d="M 502.92 207.08 A 29.58 29.58 0 0 1  532.5 236.66000000000003 L 502.92 207.08 A 29.58 29.58 0 0 0 532.5 236.66000000000003" fill="#f79953"/><path d="M 532.5 236.67000000000002 A 59.17 59.17 0 0 1  591.67 177.5 L 532.5 236.67000000000002 A 59.17 59.17 0 0 0 591.67 177.5" fill="#f79954"/><path d="M 0 236.67 A 59.17 59.17 0 0 1 59.17 295.84 L 0 295.84" fill="#f8a364"/><path d="M 59.17 236.67 A 59.17 59.17 0 0 1  118.34 295.84 L 59.17 236.67 A 59.17 59.17 0 0 0 118.34 295.84" fill="#f79f5d"/><rect x="118.33333333333333" y="236.66666666666666" width="59.166666666666664" height="59.166666666666664" fill="#F68F43"/><path d="M 118.33 266.25 A 29.58 29.58 0 0 1  147.91 236.67 L 118.33 266.25 A 29.58 29.58 0 0 0 147.91 236.67" fill="#f8a567"/><path d="M 147.92 266.25 A 29.58 29.58 0 0 1  177.5 236.67 L 177.5 266.25" fill="#f69349"/><path d="M 118.33 266.25 A 29.58 29.58 0 0 1  147.91 295.83 L 118.33 266.25 A 29.58 29.58 0 0 0 147.91 295.83" fill="#f7a05e"/><path d="M 147.92 266.25 A 29.58 29.58 0 0 0 177.5 295.83 L 177.5 266.25" fill="#f68f43"/><path d="M 177.5 295.84 A 59.17 59.17 0 0 1  236.67000000000002 236.67 L 177.5 295.84 A 59.17 59.17 0 0 0 236.67000000000002 236.67" fill="#f79e5c"/><path d="M 236.67 295.84 A 59.17 59.17 0 0 0 295.84 236.67 L 236.67 236.67" fill="#f8a363"/><rect x="295.8333333333333" y="236.66666666666666" width="59.166666666666664" height="59.166666666666664" fill="#F68F43"/><path d="M 325.42 236.67 A 29.58 29.58 0 0 1  355 266.25 L 325.42 236.67 A 29.58 29.58 0 0 0 355 266.25" fill="#f8a86c"/><path d="M 295.83 295.83 A 29.58 29.58 0 0 1  325.40999999999997 266.25 L 295.83 295.83 A 29.58 29.58 0 0 0 325.40999999999997 266.25" fill="#f6954c"/><path d="M 325.42 266.25 A 29.58 29.58 0 0 0 355 295.83 L 355 266.25" fill="#f79852"/><path d="M 355 295.84 A 59.17 59.17 0 0 1  414.17 236.67 L 355 295.84 A 59.17 59.17 0 0 0 414.17 236.67" fill="#f6954d"/><path d="M 414.17 295.84 A 59.17 59.17 0 0 1  473.34000000000003 236.67 L 414.17 295.84 A 59.17 59.17 0 0 0 473.34000000000003 236.67" fill="#f69349"/><path d="M 473.33 295.84 A 59.17 59.17 0 0 1  532.5 236.67 L 532.5 295.84" fill="#f6944c"/><path d="M 532.5 236.67 A 59.17 59.17 0 0 1  591.67 295.84 L 532.5 236.67 A 59.17 59.17 0 0 0 591.67 295.84" fill="#f6944b"/><rect x="0" y="295.8333333333333" width="59.166666666666664" height="59.166666666666664" fill="#F68F43"/><path d="M 0 325.40999999999997 A 29.58 29.58 0 0 0 29.58 295.83 L 0 295.83" fill="#f79a54"/><path d="M 29.58 325.40999999999997 A 29.58 29.58 0 0 1  59.16 295.83 L 29.58 325.40999999999997 A 29.58 29.58 0 0 0 59.16 295.83" fill="#f79751"/><path d="M 0 325.42 A 29.58 29.58 0 0 1  29.58 355 L 0 325.42 A 29.58 29.58 0 0 0 29.58 355" fill="#f79750"/><path d="M 29.58 355 A 29.58 29.58 0 0 1  59.16 325.42 L 29.58 355 A 29.58 29.58 0 0 0 59.16 325.42" fill="#f8a465"/><rect x="59.166666666666664" y="295.8333333333333" width="59.166666666666664" height="59.166666666666664" fill="#F68F43"/><path d="M 88.75 325.40999999999997 A 29.58 29.58 0 0 1  118.33 295.83 L 88.75 325.40999999999997 A 29.58 29.58 0 0 0 118.33 295.83" fill="#f79b56"/><path d="M 88.75 355 A 29.58 29.58 0 0 1  118.33 325.42 L 118.33 355" fill="#f69248"/><path d="M 118.33 295.83 A 59.17 59.17 0 0 0 177.5 355 L 177.5 295.83" fill="#f6934a"/><rect x="532.5" y="295.8333333333333" width="59.166666666666664" height="59.166666666666664" fill="#F68F43"/><path d="M 532.5 295.83 A 29.58 29.58 0 0 1  562.08 325.40999999999997 L 532.5 295.83 A 29.58 29.58 0 0 0 562.08 325.40999999999997" fill="#f79c59"/><path d="M 591.67 295.83 A 59.17 59.17 0 0 1  650.8399999999999 355 L 591.67 295.83 A 59.17 59.17 0 0 0 650.8399999999999 355" fill="#f8a363"/></g></svg>