<?xml version="1.0" standalone="no"?><svg xmlns:xlink="http://www.w3.org/1999/xlink" xmlns="http://www.w3.org/2000/svg" viewBox="0 0 1000 545.4590152851445" preserveAspectRatio="xMaxYMax slice"><g transform="scale(1.5365042684088577)"><rect x="0" y="0" width="650.8333333333333" height="355" fill="#FEEEE2"/><path d="M 59.17 0 A 59.17 59.17 0 0 1  118.34 59.17 L 59.17 0 A 59.17 59.17 0 0 0 118.34 59.17" fill="#f5f0e8"/><rect x="118.33333333333333" y="0" width="59.166666666666664" height="59.166666666666664" fill="#FEEEE2"/><path d="M 147.92 0 A 29.58 29.58 0 0 1  177.5 29.58 L 147.92 0 A 29.58 29.58 0 0 0 177.5 29.58" fill="#fceee3"/><path d="M 118.33 59.16 A 29.58 29.58 0 0 1  147.91 29.58 L 147.91 59.16" fill="#e9f3f0"/><rect x="236.66666666666666" y="0" width="59.166666666666664" height="59.166666666666664" fill="#FEEEE2"/><path d="M 236.67 29.58 A 29.58 29.58 0 0 1  266.25 0 L 236.67 29.58 A 29.58 29.58 0 0 0 266.25 0" fill="#ebf2ee"/><path d="M 236.67 59.16 A 29.58 29.58 0 0 1  266.25 29.58 L 236.67 59.16 A 29.58 29.58 0 0 0 266.25 29.58" fill="#fcefe4"/><rect x="295.8333333333333" y="0" width="59.166666666666664" height="59.166666666666664" fill="#FEEEE2"/><path d="M 325.42 29.58 A 29.58 29.58 0 0 1  355 0 L 355 29.58" fill="#f0f1eb"/><path d="M 325.42 29.58 A 29.58 29.58 0 0 1  355 59.16 L 325.42 29.58 A 29.58 29.58 0 0 0 355 59.16" fill="#f5f0e8"/><rect x="355" y="0" width="59.166666666666664" height="59.166666666666664" fill="#FEEEE2"/><path d="M 355 29.58 A 29.58 29.58 0 0 1  384.58 0 L 355 29.58 A 29.58 29.58 0 0 0 384.58 0" fill="#feeee3"/><path d="M 384.58 29.58 A 29.58 29.58 0 0 1  414.15999999999997 0 L 414.15999999999997 29.58" fill="#eef1ec"/><path d="M 384.58 59.16 A 29.58 29.58 0 0 0 414.15999999999997 29.58 L 384.58 29.58" fill="#feefe5"/><rect x="414.16666666666663" y="0" width="59.166666666666664" height="59.166666666666664" fill="#FEEEE2"/><path d="M 414.17 29.58 A 29.58 29.58 0 0 1  443.75 0 L 443.75 29.58" fill="#fef2ea"/><path d="M 443.75 29.58 A 29.58 29.58 0 0 1  473.33 0 L 443.75 29.58 A 29.58 29.58 0 0 0 473.33 0" fill="#faefe5"/><path d="M 443.75 29.58 A 29.58 29.58 0 0 1  473.33 59.16 L 443.75 29.58 A 29.58 29.58 0 0 0 473.33 59.16" fill="#fef5ee"/><path d="M 473.33 59.17 A 59.17 59.17 0 0 0 532.5 0 L 473.33 0" fill="#e9f3f0"/><rect x="532.5" y="0" width="59.166666666666664" height="59.166666666666664" fill="#FEEEE2"/><path d="M 562.08 29.58 A 29.58 29.58 0 0 1  591.6600000000001 0 L 591.6600000000001 29.58" fill="#fef1e7"/><path d="M 532.5 29.58 A 29.58 29.58 0 0 1  562.08 59.16 L 532.5 29.58 A 29.58 29.58 0 0 0 562.08 59.16" fill="#f0f1eb"/><path d="M 562.08 29.58 A 29.58 29.58 0 0 1  591.6600000000001 59.16 L 562.08 29.58 A 29.58 29.58 0 0 0 591.6600000000001 59.16" fill="#fef5ef"/><path d="M 591.67 0 A 59.17 59.17 0 0 1  650.8399999999999 59.17 L 591.67 0 A 59.17 59.17 0 0 0 650.8399999999999 59.17" fill="#fef5ee"/><path d="M 0 118.34 A 59.17 59.17 0 0 1  59.17 59.17 L 59.17 118.34" fill="#f8efe6"/><path d="M 59.17 118.34 A 59.17 59.17 0 0 1  118.34 59.17 L 59.17 118.34 A 59.17 59.17 0 0 0 118.34 59.17" fill="#fef5ef"/><rect x="118.33333333333333" y="59.166666666666664" width="59.166666666666664" height="59.166666666666664" fill="#FEEEE2"/><path d="M 118.33 88.75 A 29.58 29.58 0 0 1  147.91 59.17 L 147.91 88.75" fill="#e8f3f0"/><path d="M 147.92 88.75 A 29.58 29.58 0 0 1  177.5 59.17 L 147.92 88.75 A 29.58 29.58 0 0 0 177.5 59.17" fill="#ecf2ee"/><path d="M 236.67 118.34 A 59.17 59.17 0 0 1  295.84 59.17 L 236.67 118.34 A 59.17 59.17 0 0 0 295.84 59.17" fill="#fceee3"/><path d="M 295.83 118.34 A 59.17 59.17 0 0 1  355 59.17 L 295.83 118.34 A 59.17 59.17 0 0 0 355 59.17" fill="#f7efe6"/><rect x="355" y="59.166666666666664" width="59.166666666666664" height="59.166666666666664" fill="#FEEEE2"/><path d="M 355 88.75 A 29.58 29.58 0 0 1  384.58 59.17 L 355 88.75 A 29.58 29.58 0 0 0 384.58 59.17" fill="#e9f3f0"/><path d="M 384.58 88.75 A 29.58 29.58 0 0 1  414.15999999999997 59.17 L 384.58 88.75 A 29.58 29.58 0 0 0 414.15999999999997 59.17" fill="#e9f3f0"/><path d="M 355 118.33 A 29.58 29.58 0 0 1  384.58 88.75 L 355 118.33 A 29.58 29.58 0 0 0 384.58 88.75" fill="#fef3eb"/><rect x="414.16666666666663" y="59.166666666666664" width="59.166666666666664" height="59.166666666666664" fill="#FEEEE2"/><path d="M 414.17 88.75 A 29.58 29.58 0 0 0 443.75 59.17 L 414.17 59.17" fill="#ebf2ef"/><path d="M 414.17 88.75 A 29.58 29.58 0 0 1  443.75 118.33 L 414.17 88.75 A 29.58 29.58 0 0 0 443.75 118.33" fill="#f1f1ea"/><rect x="532.5" y="59.166666666666664" width="59.166666666666664" height="59.166666666666664" fill="#FEEEE2"/><path d="M 532.5 88.75 A 29.58 29.58 0 0 1  562.08 59.17 L 562.08 88.75" fill="#ebf2ee"/><path d="M 562.08 88.75 A 29.58 29.58 0 0 1  591.6600000000001 59.17 L 562.08 88.75 A 29.58 29.58 0 0 0 591.6600000000001 59.17" fill="#fef6ef"/><path d="M 532.5 88.75 A 29.58 29.58 0 0 1  562.08 118.33 L 532.5 88.75 A 29.58 29.58 0 0 0 562.08 118.33" fill="#ecf2ee"/><rect x="591.6666666666666" y="59.166666666666664" width="59.166666666666664" height="59.166666666666664" fill="#FEEEE2"/><path d="M 591.67 88.75 A 29.58 29.58 0 0 0 621.25 59.17 L 591.67 59.17" fill="#edf2ed"/><path d="M 591.67 88.75 A 29.58 29.58 0 0 0 621.25 118.33 L 621.25 88.75" fill="#fef0e6"/><path d="M 59.17 118.33 A 59.17 59.17 0 0 1  118.34 177.5 L 59.17 118.33 A 59.17 59.17 0 0 0 118.34 177.5" fill="#fef4ed"/><rect x="118.33333333333333" y="118.33333333333333" width="59.166666666666664" height="59.166666666666664" fill="#FEEEE2"/><path d="M 118.33 118.33 A 29.58 29.58 0 0 0 147.91 147.91 L 147.91 118.33" fill="#f4f0e9"/><path d="M 147.92 118.33 A 29.58 29.58 0 0 1  177.5 147.91 L 147.92 118.33 A 29.58 29.58 0 0 0 177.5 147.91" fill="#fef2e9"/><path d="M 118.33 147.92 A 29.58 29.58 0 0 1  147.91 177.5 L 118.33 147.92 A 29.58 29.58 0 0 0 147.91 177.5" fill="#fbefe4"/><rect x="177.5" y="118.33333333333333" width="59.166666666666664" height="59.166666666666664" fill="#FEEEE2"/><path d="M 177.5 118.33 A 29.58 29.58 0 0 1  207.07999999999998 147.91 L 177.5 118.33 A 29.58 29.58 0 0 0 207.07999999999998 147.91" fill="#fef1e7"/><path d="M 177.5 147.92 A 29.58 29.58 0 0 1  207.07999999999998 177.5 L 177.5 147.92 A 29.58 29.58 0 0 0 207.07999999999998 177.5" fill="#f6f0e7"/><path d="M 236.67 177.5 A 59.17 59.17 0 0 1  295.84 118.33 L 236.67 177.5 A 59.17 59.17 0 0 0 295.84 118.33" fill="#fef4ec"/><path d="M 414.17 177.5 A 59.17 59.17 0 0 1  473.34000000000003 118.33 L 473.34000000000003 177.5" fill="#feefe4"/><rect x="532.5" y="118.33333333333333" width="59.166666666666664" height="59.166666666666664" fill="#FEEEE2"/><path d="M 532.5 147.91 A 29.58 29.58 0 0 1  562.08 118.33 L 532.5 147.91 A 29.58 29.58 0 0 0 562.08 118.33" fill="#fef4ed"/><path d="M 562.08 147.91 A 29.58 29.58 0 0 1  591.6600000000001 118.33 L 591.6600000000001 147.91" fill="#feefe4"/><rect x="591.6666666666666" y="118.33333333333333" width="59.166666666666664" height="59.166666666666664" fill="#FEEEE2"/><path d="M 591.67 118.33 A 29.58 29.58 0 0 1  621.25 147.91 L 591.67 118.33 A 29.58 29.58 0 0 0 621.25 147.91" fill="#fef0e5"/><path d="M 621.25 118.33 A 29.58 29.58 0 0 1  650.83 147.91 L 621.25 118.33 A 29.58 29.58 0 0 0 650.83 147.91" fill="#f7f0e7"/><path d="M 591.67 177.5 A 29.58 29.58 0 0 1  621.25 147.92 L 591.67 177.5 A 29.58 29.58 0 0 0 621.25 147.92" fill="#fef3eb"/><path d="M 621.25 177.5 A 29.58 29.58 0 0 1  650.83 147.92 L 621.25 177.5 A 29.58 29.58 0 0 0 650.83 147.92" fill="#fef1e7"/><rect x="118.33333333333333" y="177.5" width="59.166666666666664" height="59.166666666666664" fill="#FEEEE2"/><path d="M 118.33 177.5 A 29.58 29.58 0 0 1  147.91 207.07999999999998 L 118.33 177.5 A 29.58 29.58 0 0 0 147.91 207.07999999999998" fill="#fef5ee"/><path d="M 177.5 177.5 A 59.17 59.17 0 0 0 236.67000000000002 236.67000000000002 L 236.67000000000002 177.5" fill="#fef4ed"/><rect x="236.66666666666666" y="177.5" width="59.166666666666664" height="59.166666666666664" fill="#FEEEE2"/><path d="M 236.67 177.5 A 29.58 29.58 0 0 0 266.25 207.07999999999998 L 266.25 177.5" fill="#f6f0e7"/><path d="M 355 236.67000000000002 A 59.17 59.17 0 0 0 414.17 177.5 L 355 177.5" fill="#fef0e5"/><rect x="414.16666666666663" y="177.5" width="59.166666666666664" height="59.166666666666664" fill="#FEEEE2"/><path d="M 414.17 207.07999999999998 A 29.58 29.58 0 0 1  443.75 177.5 L 414.17 207.07999999999998 A 29.58 29.58 0 0 0 443.75 177.5" fill="#eaf2ef"/><path d="M 443.75 207.07999999999998 A 29.58 29.58 0 0 1  473.33 177.5 L 443.75 207.07999999999998 A 29.58 29.58 0 0 0 473.33 177.5" fill="#fef3ea"/><path d="M 414.17 207.08 A 29.58 29.58 0 0 1  443.75 236.66000000000003 L 414.17 207.08 A 29.58 29.58 0 0 0 443.75 236.66000000000003" fill="#ebf2ee"/><path d="M 443.75 236.66000000000003 A 29.58 29.58 0 0 0 473.33 207.08 L 443.75 207.08" fill="#f9efe5"/><path d="M 473.33 177.5 A 59.17 59.17 0 0 1 532.5 236.67000000000002 L 473.33 236.67000000000002" fill="#eff1ec"/><rect x="0" y="236.66666666666666" width="59.166666666666664" height="59.166666666666664" fill="#FEEEE2"/><path d="M 29.58 266.25 A 29.58 29.58 0 0 1  59.16 236.67 L 29.58 266.25 A 29.58 29.58 0 0 0 59.16 236.67" fill="#eaf2ef"/><path d="M 0 295.83 A 29.58 29.58 0 0 1  29.58 266.25 L 0 295.83 A 29.58 29.58 0 0 0 29.58 266.25" fill="#eaf2ef"/><path d="M 29.58 266.25 A 29.58 29.58 0 0 1  59.16 295.83 L 29.58 266.25 A 29.58 29.58 0 0 0 59.16 295.83" fill="#f5f0e8"/><rect x="118.33333333333333" y="236.66666666666666" width="59.166666666666664" height="59.166666666666664" fill="#FEEEE2"/><path d="M 147.92 266.25 A 29.58 29.58 0 0 1  177.5 236.67 L 147.92 266.25 A 29.58 29.58 0 0 0 177.5 236.67" fill="#fef0e5"/><path d="M 118.33 266.25 A 29.58 29.58 0 0 1  147.91 295.83 L 118.33 266.25 A 29.58 29.58 0 0 0 147.91 295.83" fill="#f6f0e7"/><rect x="236.66666666666666" y="236.66666666666666" width="59.166666666666664" height="59.166666666666664" fill="#FEEEE2"/><path d="M 236.67 266.25 A 29.58 29.58 0 0 0 266.25 236.67 L 236.67 236.67" fill="#fceee3"/><path d="M 266.25 236.67 A 29.58 29.58 0 0 0 295.83 266.25 L 295.83 236.67" fill="#fdeee2"/><path d="M 236.67 295.83 A 29.58 29.58 0 0 1  266.25 266.25 L 266.25 295.83" fill="#e8f3f0"/><path d="M 295.83 295.84 A 59.17 59.17 0 0 1  355 236.67 L 295.83 295.84 A 59.17 59.17 0 0 0 355 236.67" fill="#fdeee2"/><rect x="355" y="236.66666666666666" width="59.166666666666664" height="59.166666666666664" fill="#FEEEE2"/><path d="M 355 266.25 A 29.58 29.58 0 0 1  384.58 236.67 L 355 266.25 A 29.58 29.58 0 0 0 384.58 236.67" fill="#fef2e8"/><path d="M 355 266.25 A 29.58 29.58 0 0 1 384.58 295.83 L 355 295.83" fill="#f3f0e9"/><path d="M 384.58 266.25 A 29.58 29.58 0 0 1 414.15999999999997 295.83 L 384.58 295.83" fill="#faefe5"/><rect x="414.16666666666663" y="236.66666666666666" width="59.166666666666664" height="59.166666666666664" fill="#FEEEE2"/><path d="M 414.17 236.67 A 29.58 29.58 0 0 1  443.75 266.25 L 414.17 236.67 A 29.58 29.58 0 0 0 443.75 266.25" fill="#fef5ee"/><path d="M 443.75 236.67 A 29.58 29.58 0 0 0 473.33 266.25 L 473.33 236.67" fill="#f7efe6"/><path d="M 414.17 295.83 A 29.58 29.58 0 0 1  443.75 266.25 L 414.17 295.83 A 29.58 29.58 0 0 0 443.75 266.25" fill="#ecf2ee"/><path d="M 443.75 295.83 A 29.58 29.58 0 0 1  473.33 266.25 L 473.33 295.83" fill="#fef2e9"/><path d="M 473.33 236.67 A 59.17 59.17 0 0 1  532.5 295.84 L 473.33 236.67 A 59.17 59.17 0 0 0 532.5 295.84" fill="#f1f1ea"/><rect x="59.166666666666664" y="295.8333333333333" width="59.166666666666664" height="59.166666666666664" fill="#FEEEE2"/><path d="M 59.17 325.40999999999997 A 29.58 29.58 0 0 1  88.75 295.83 L 59.17 325.40999999999997 A 29.58 29.58 0 0 0 88.75 295.83" fill="#feeee2"/><path d="M 88.75 295.83 A 29.58 29.58 0 0 1  118.33 325.40999999999997 L 88.75 295.83 A 29.58 29.58 0 0 0 118.33 325.40999999999997" fill="#fef2e9"/><path d="M 59.17 325.42 A 29.58 29.58 0 0 1  88.75 355 L 59.17 325.42 A 29.58 29.58 0 0 0 88.75 355" fill="#fef5ef"/><path d="M 88.75 325.42 A 29.58 29.58 0 0 1  118.33 355 L 88.75 325.42 A 29.58 29.58 0 0 0 118.33 355" fill="#eaf2ef"/><path d="M 118.33 355 A 59.17 59.17 0 0 1  177.5 295.83 L 118.33 355 A 59.17 59.17 0 0 0 177.5 295.83" fill="#fef2ea"/><rect x="236.66666666666666" y="295.8333333333333" width="59.166666666666664" height="59.166666666666664" fill="#FEEEE2"/><path d="M 266.25 325.40999999999997 A 29.58 29.58 0 0 1  295.83 295.83 L 295.83 325.40999999999997" fill="#f5f0e8"/><path d="M 266.25 355 A 29.58 29.58 0 0 1  295.83 325.42 L 266.25 355 A 29.58 29.58 0 0 0 295.83 325.42" fill="#e8f3f0"/><path d="M 295.83 355 A 59.17 59.17 0 0 1  355 295.83 L 295.83 355 A 59.17 59.17 0 0 0 355 295.83" fill="#e8f3f0"/><path d="M 355 355 A 59.17 59.17 0 0 1  414.17 295.83 L 355 355 A 59.17 59.17 0 0 0 414.17 295.83" fill="#fef0e5"/><path d="M 414.17 355 A 59.17 59.17 0 0 0 473.34000000000003 295.83 L 414.17 295.83" fill="#feeee2"/><rect x="473.3333333333333" y="295.8333333333333" width="59.166666666666664" height="59.166666666666664" fill="#FEEEE2"/><path d="M 473.33 325.40999999999997 A 29.58 29.58 0 0 0 502.90999999999997 295.83 L 473.33 295.83" fill="#e8f3f0"/><path d="M 502.92 325.40999999999997 A 29.58 29.58 0 0 1  532.5 295.83 L 502.92 325.40999999999997 A 29.58 29.58 0 0 0 532.5 295.83" fill="#ebf2ef"/><path d="M 473.33 355 A 29.58 29.58 0 0 1  502.90999999999997 325.42 L 473.33 355 A 29.58 29.58 0 0 0 502.90999999999997 325.42" fill="#fef0e6"/><path d="M 502.92 355 A 29.58 29.58 0 0 1  532.5 325.42 L 502.92 355 A 29.58 29.58 0 0 0 532.5 325.42" fill="#f3f0e9"/><path d="M 532.5 355 A 59.17 59.17 0 0 1  591.67 295.83 L 532.5 355 A 59.17 59.17 0 0 0 591.67 295.83" fill="#f5f0e8"/></g></svg>