<?xml version="1.0" standalone="no"?><svg xmlns:xlink="http://www.w3.org/1999/xlink" xmlns="http://www.w3.org/2000/svg" viewBox="0 0 1000 545.4590152851445" preserveAspectRatio="xMaxYMax slice"><g transform="scale(1.5365042684088577)"><rect x="0" y="0" width="650.8333333333333" height="355" fill="#ffffff"/><path d="M 0 59.17 A 59.17 59.17 0 0 1  59.17 0 L 0 59.17 A 59.17 59.17 0 0 0 59.17 0" fill="#f4faf9"/><path d="M 59.17 0 A 59.17 59.17 0 0 1  118.34 59.17 L 59.17 0 A 59.17 59.17 0 0 0 118.34 59.17" fill="#f6fbfa"/><path d="M 177.5 59.17 A 59.17 59.17 0 0 1  236.67000000000002 0 L 177.5 59.17 A 59.17 59.17 0 0 0 236.67000000000002 0" fill="#fef8f4"/><rect x="236.66666666666666" y="0" width="59.166666666666664" height="59.166666666666664" fill="#ffffff"/><path d="M 236.67 29.58 A 29.58 29.58 0 0 1  266.25 0 L 236.67 29.58 A 29.58 29.58 0 0 0 266.25 0" fill="#fef9f6"/><path d="M 266.25 0 A 29.58 29.58 0 0 1  295.83 29.58 L 266.25 0 A 29.58 29.58 0 0 0 295.83 29.58" fill="#f9fcfc"/><path d="M 236.67 29.58 A 29.58 29.58 0 0 1  266.25 59.16 L 236.67 29.58 A 29.58 29.58 0 0 0 266.25 59.16" fill="#edf6f5"/><path d="M 266.25 59.16 A 29.58 29.58 0 0 1  295.83 29.58 L 266.25 59.16 A 29.58 29.58 0 0 0 295.83 29.58" fill="#f0f7f6"/><rect x="355" y="0" width="59.166666666666664" height="59.166666666666664" fill="#ffffff"/><path d="M 384.58 29.58 A 29.58 29.58 0 0 1  414.15999999999997 0 L 384.58 29.58 A 29.58 29.58 0 0 0 414.15999999999997 0" fill="#fef8f3"/><path d="M 355 59.16 A 29.58 29.58 0 0 0 384.58 29.58 L 355 29.58" fill="#fffefd"/><path d="M 384.58 59.16 A 29.58 29.58 0 0 1  414.15999999999997 29.58 L 384.58 59.16 A 29.58 29.58 0 0 0 414.15999999999997 29.58" fill="#fffefe"/><rect x="414.16666666666663" y="0" width="59.166666666666664" height="59.166666666666664" fill="#ffffff"/><path d="M 414.17 29.58 A 29.58 29.58 0 0 0 443.75 0 L 414.17 0" fill="#f4faf9"/><path d="M 443.75 0 A 29.58 29.58 0 0 1  473.33 29.58 L 443.75 0 A 29.58 29.58 0 0 0 473.33 29.58" fill="#eaf5f3"/><path d="M 473.33 0 A 59.17 59.17 0 0 1  532.5 59.17 L 473.33 0 A 59.17 59.17 0 0 0 532.5 59.17" fill="#fef8f3"/><path d="M 532.5 59.17 A 59.17 59.17 0 0 1  591.67 0 L 532.5 59.17 A 59.17 59.17 0 0 0 591.67 0" fill="#f3f9f8"/><rect x="591.6666666666666" y="0" width="59.166666666666664" height="59.166666666666664" fill="#ffffff"/><path d="M 591.67 29.58 A 29.58 29.58 0 0 1  621.25 0 L 591.67 29.58 A 29.58 29.58 0 0 0 621.25 0" fill="#fffcfa"/><rect x="0" y="59.166666666666664" width="59.166666666666664" height="59.166666666666664" fill="#ffffff"/><path d="M 29.58 88.75 A 29.58 29.58 0 0 1  59.16 59.17 L 29.58 88.75 A 29.58 29.58 0 0 0 59.16 59.17" fill="#fef6f0"/><path d="M 0 118.33 A 29.58 29.58 0 0 0 29.58 88.75 L 0 88.75" fill="#ebf5f3"/><path d="M 29.58 88.75 A 29.58 29.58 0 0 1  59.16 118.33 L 29.58 88.75 A 29.58 29.58 0 0 0 59.16 118.33" fill="#f9fcfc"/><rect x="118.33333333333333" y="59.166666666666664" width="59.166666666666664" height="59.166666666666664" fill="#ffffff"/><path d="M 118.33 88.75 A 29.58 29.58 0 0 1  147.91 118.33 L 118.33 88.75 A 29.58 29.58 0 0 0 147.91 118.33" fill="#f3f9f8"/><path d="M 147.92 88.75 A 29.58 29.58 0 0 1  177.5 118.33 L 147.92 88.75 A 29.58 29.58 0 0 0 177.5 118.33" fill="#fefefe"/><path d="M 236.67 59.17 A 59.17 59.17 0 0 1  295.84 118.34 L 236.67 59.17 A 59.17 59.17 0 0 0 295.84 118.34" fill="#fcfefd"/><rect x="295.8333333333333" y="59.166666666666664" width="59.166666666666664" height="59.166666666666664" fill="#ffffff"/><path d="M 325.42 88.75 A 29.58 29.58 0 0 1  355 59.17 L 325.42 88.75 A 29.58 29.58 0 0 0 355 59.17" fill="#fffcfa"/><path d="M 325.42 88.75 A 29.58 29.58 0 0 1  355 118.33 L 325.42 88.75 A 29.58 29.58 0 0 0 355 118.33" fill="#f6fbfa"/><path d="M 473.33 59.17 A 59.17 59.17 0 0 1  532.5 118.34 L 473.33 59.17 A 59.17 59.17 0 0 0 532.5 118.34" fill="#f7fbfb"/><rect x="532.5" y="59.166666666666664" width="59.166666666666664" height="59.166666666666664" fill="#ffffff"/><path d="M 532.5 88.75 A 29.58 29.58 0 0 1  562.08 59.17 L 532.5 88.75 A 29.58 29.58 0 0 0 562.08 59.17" fill="#f8fbfb"/><path d="M 562.08 59.17 A 29.58 29.58 0 0 1  591.6600000000001 88.75 L 562.08 59.17 A 29.58 29.58 0 0 0 591.6600000000001 88.75" fill="#ebf5f4"/><path d="M 562.08 118.33 A 29.58 29.58 0 0 1  591.6600000000001 88.75 L 591.6600000000001 118.33" fill="#e9f4f2"/><rect x="591.6666666666666" y="59.166666666666664" width="59.166666666666664" height="59.166666666666664" fill="#ffffff"/><path d="M 591.67 59.17 A 29.58 29.58 0 0 0 621.25 88.75 L 621.25 59.17" fill="#fef7f1"/><path d="M 621.25 88.75 A 29.58 29.58 0 0 1  650.83 59.17 L 621.25 88.75 A 29.58 29.58 0 0 0 650.83 59.17" fill="#fbfdfd"/><path d="M 591.67 88.75 A 29.58 29.58 0 0 1  621.25 118.33 L 591.67 88.75 A 29.58 29.58 0 0 0 621.25 118.33" fill="#f7fbfb"/><rect x="0" y="118.33333333333333" width="59.166666666666664" height="59.166666666666664" fill="#ffffff"/><path d="M 29.58 118.33 A 29.58 29.58 0 0 0 59.16 147.91 L 59.16 118.33" fill="#ecf5f4"/><path d="M 0 147.92 A 29.58 29.58 0 0 1  29.58 177.5 L 0 147.92 A 29.58 29.58 0 0 0 29.58 177.5" fill="#fef6f0"/><path d="M 29.58 147.92 A 29.58 29.58 0 0 1  59.16 177.5 L 29.58 147.92 A 29.58 29.58 0 0 0 59.16 177.5" fill="#f8fbfb"/><path d="M 59.17 177.5 A 59.17 59.17 0 0 1  118.34 118.33 L 59.17 177.5 A 59.17 59.17 0 0 0 118.34 118.33" fill="#fef8f3"/><path d="M 118.33 118.33 A 59.17 59.17 0 0 0 177.5 177.5 L 177.5 118.33" fill="#fffcfa"/><rect x="236.66666666666666" y="118.33333333333333" width="59.166666666666664" height="59.166666666666664" fill="#ffffff"/><path d="M 236.67 118.33 A 29.58 29.58 0 0 1  266.25 147.91 L 236.67 118.33 A 29.58 29.58 0 0 0 266.25 147.91" fill="#f3f9f8"/><path d="M 236.67 177.5 A 29.58 29.58 0 0 1  266.25 147.92 L 236.67 177.5 A 29.58 29.58 0 0 0 266.25 147.92" fill="#fef7f2"/><path d="M 295.83 118.33 A 59.17 59.17 0 0 0 355 177.5 L 355 118.33" fill="#e9f4f2"/><path d="M 355 118.33 A 59.17 59.17 0 0 1  414.17 177.5 L 355 118.33 A 59.17 59.17 0 0 0 414.17 177.5" fill="#ecf6f4"/><path d="M 591.67 177.5 A 59.17 59.17 0 0 1  650.8399999999999 118.33 L 591.67 177.5 A 59.17 59.17 0 0 0 650.8399999999999 118.33" fill="#fafcfc"/><rect x="59.166666666666664" y="177.5" width="59.166666666666664" height="59.166666666666664" fill="#ffffff"/><path d="M 59.17 236.66000000000003 A 29.58 29.58 0 0 1  88.75 207.08 L 59.17 236.66000000000003 A 29.58 29.58 0 0 0 88.75 207.08" fill="#ffffff"/><path d="M 88.75 236.66000000000003 A 29.58 29.58 0 0 0 118.33 207.08 L 88.75 207.08" fill="#fffdfb"/><path d="M 177.5 236.67000000000002 A 59.17 59.17 0 0 1  236.67000000000002 177.5 L 177.5 236.67000000000002 A 59.17 59.17 0 0 0 236.67000000000002 177.5" fill="#ffffff"/><rect x="236.66666666666666" y="177.5" width="59.166666666666664" height="59.166666666666664" fill="#ffffff"/><path d="M 236.67 207.07999999999998 A 29.58 29.58 0 0 1  266.25 177.5 L 266.25 207.07999999999998" fill="#f4faf9"/><path d="M 236.67 207.08 A 29.58 29.58 0 0 1  266.25 236.66000000000003 L 236.67 207.08 A 29.58 29.58 0 0 0 266.25 236.66000000000003" fill="#ecf5f4"/><path d="M 295.83 177.5 A 59.17 59.17 0 0 1  355 236.67000000000002 L 295.83 177.5 A 59.17 59.17 0 0 0 355 236.67000000000002" fill="#fffefd"/><path d="M 355 236.67000000000002 A 59.17 59.17 0 0 1  414.17 177.5 L 355 236.67000000000002 A 59.17 59.17 0 0 0 414.17 177.5" fill="#e9f4f2"/><rect x="414.16666666666663" y="177.5" width="59.166666666666664" height="59.166666666666664" fill="#ffffff"/><path d="M 414.17 207.07999999999998 A 29.58 29.58 0 0 1  443.75 177.5 L 443.75 207.07999999999998" fill="#fef8f3"/><path d="M 443.75 207.07999999999998 A 29.58 29.58 0 0 1  473.33 177.5 L 443.75 207.07999999999998 A 29.58 29.58 0 0 0 473.33 177.5" fill="#fef9f5"/><path d="M 414.17 207.08 A 29.58 29.58 0 0 1  443.75 236.66000000000003 L 414.17 207.08 A 29.58 29.58 0 0 0 443.75 236.66000000000003" fill="#fdfefe"/><path d="M 443.75 207.08 A 29.58 29.58 0 0 1  473.33 236.66000000000003 L 443.75 207.08 A 29.58 29.58 0 0 0 473.33 236.66000000000003" fill="#fcfefd"/><path d="M 473.33 177.5 A 59.17 59.17 0 0 1  532.5 236.67000000000002 L 473.33 177.5 A 59.17 59.17 0 0 0 532.5 236.67000000000002" fill="#f9fcfb"/><path d="M 591.67 177.5 A 59.17 59.17 0 0 1  650.8399999999999 236.67000000000002 L 591.67 177.5 A 59.17 59.17 0 0 0 650.8399999999999 236.67000000000002" fill="#f6fbfa"/><path d="M 0 295.84 A 59.17 59.17 0 0 1  59.17 236.67 L 0 295.84 A 59.17 59.17 0 0 0 59.17 236.67" fill="#fffcf9"/><path d="M 236.67 295.84 A 59.17 59.17 0 0 1  295.84 236.67 L 295.84 295.84" fill="#eef6f5"/><path d="M 295.83 295.84 A 59.17 59.17 0 0 1  355 236.67 L 295.83 295.84 A 59.17 59.17 0 0 0 355 236.67" fill="#fef9f5"/><rect x="355" y="236.66666666666666" width="59.166666666666664" height="59.166666666666664" fill="#ffffff"/><path d="M 355 236.67 A 29.58 29.58 0 0 1  384.58 266.25 L 355 236.67 A 29.58 29.58 0 0 0 384.58 266.25" fill="#edf6f5"/><path d="M 355 266.25 A 29.58 29.58 0 0 0 384.58 295.83 L 384.58 266.25" fill="#f0f8f6"/><path d="M 384.58 266.25 A 29.58 29.58 0 0 1  414.15999999999997 295.83 L 384.58 266.25 A 29.58 29.58 0 0 0 414.15999999999997 295.83" fill="#ecf5f4"/><rect x="473.3333333333333" y="236.66666666666666" width="59.166666666666664" height="59.166666666666664" fill="#ffffff"/><path d="M 473.33 266.25 A 29.58 29.58 0 0 0 502.90999999999997 236.67 L 473.33 236.67" fill="#f5faf9"/><path d="M 502.92 266.25 A 29.58 29.58 0 0 1  532.5 236.67 L 502.92 266.25 A 29.58 29.58 0 0 0 532.5 236.67" fill="#fef7f2"/><path d="M 473.33 295.83 A 29.58 29.58 0 0 0 502.90999999999997 266.25 L 473.33 266.25" fill="#fffcfa"/><path d="M 502.92 295.83 A 29.58 29.58 0 0 0 532.5 266.25 L 502.92 266.25" fill="#f5faf9"/><rect x="532.5" y="236.66666666666666" width="59.166666666666664" height="59.166666666666664" fill="#ffffff"/><path d="M 562.08 266.25 A 29.58 29.58 0 0 1  591.6600000000001 236.67 L 562.08 266.25 A 29.58 29.58 0 0 0 591.6600000000001 236.67" fill="#f8fcfb"/><path d="M 562.08 295.83 A 29.58 29.58 0 0 0 591.6600000000001 266.25 L 562.08 266.25" fill="#f2f8f7"/><rect x="0" y="295.8333333333333" width="59.166666666666664" height="59.166666666666664" fill="#ffffff"/><path d="M 0 325.40999999999997 A 29.58 29.58 0 0 1  29.58 295.83 L 0 325.40999999999997 A 29.58 29.58 0 0 0 29.58 295.83" fill="#f0f7f6"/><path d="M 0 355 A 29.58 29.58 0 0 1  29.58 325.42 L 29.58 355" fill="#fefaf7"/><rect x="59.166666666666664" y="295.8333333333333" width="59.166666666666664" height="59.166666666666664" fill="#ffffff"/><path d="M 59.17 295.83 A 29.58 29.58 0 0 1  88.75 325.40999999999997 L 59.17 295.83 A 29.58 29.58 0 0 0 88.75 325.40999999999997" fill="#eff7f6"/><path d="M 88.75 325.40999999999997 A 29.58 29.58 0 0 0 118.33 295.83 L 88.75 295.83" fill="#fef8f4"/><path d="M 59.17 325.42 A 29.58 29.58 0 0 1  88.75 355 L 59.17 325.42 A 29.58 29.58 0 0 0 88.75 355" fill="#f7fbfa"/><path d="M 118.33 295.83 A 59.17 59.17 0 0 1  177.5 355 L 118.33 295.83 A 59.17 59.17 0 0 0 177.5 355" fill="#f7fbfa"/><rect x="177.5" y="295.8333333333333" width="59.166666666666664" height="59.166666666666664" fill="#ffffff"/><path d="M 177.5 325.40999999999997 A 29.58 29.58 0 0 1  207.07999999999998 295.83 L 177.5 325.40999999999997 A 29.58 29.58 0 0 0 207.07999999999998 295.83" fill="#fffdfc"/><path d="M 207.08 295.83 A 29.58 29.58 0 0 1  236.66000000000003 325.40999999999997 L 207.08 295.83 A 29.58 29.58 0 0 0 236.66000000000003 325.40999999999997" fill="#f5faf9"/><rect x="236.66666666666666" y="295.8333333333333" width="59.166666666666664" height="59.166666666666664" fill="#ffffff"/><path d="M 266.25 295.83 A 29.58 29.58 0 0 1  295.83 325.40999999999997 L 266.25 295.83 A 29.58 29.58 0 0 0 295.83 325.40999999999997" fill="#fef7f2"/></g></svg>